<svg width="551" height="551" viewBox="0 0 551 551" fill="none" xmlns="http://www.w3.org/2000/svg">
<circle cx="275.5" cy="275.5" r="275.5" fill="#1E1E1E"/>
<path d="M146.003 264.455H168.951H191.57V267.643C192.581 300.004 207.878 328.798 234.228 347.846C250.322 359.477 266.956 364.69 286.31 367.679C286.475 383.274 286.35 399.215 286.312 414.818C248.485 410.016 215.893 396.788 188.562 369.531C161.156 342.72 145.766 302.769 146.003 264.455Z" fill="#A7C68E"/>
<path d="M268.228 134.226C271.124 134.004 274.026 134.021 276.933 134L276.916 178.658C230.368 181.424 195.922 215.845 191.774 261.98C179.897 262.275 167.056 262.001 155.09 262.033C152.096 262.02 149.102 262.024 146.109 262.046C146.231 258.568 146.266 254.491 146.634 251.087C149.633 224.833 160.389 200.065 177.531 179.939C200.46 153.242 233.106 136.788 268.228 134.226Z" fill="#009957"/>
<path d="M280.025 134.203C283.339 134.19 288.646 133.978 291.949 134.202C324.288 136.137 355.972 152.072 377.287 176.315C397.562 199.378 411.467 230.905 409.601 261.981L409.145 264.759H386.503H363.08V261.973C365.168 214.394 327.194 178.997 280.028 178.706C279.865 163.985 279.968 148.937 280.025 134.203Z" fill="#6CB295"/>
<path d="M409.79 292.527C410.103 294.302 409.975 300.451 409.969 302.471L409.932 321.89L409.949 395.863C377.569 411.526 328.153 419.1 292.462 415.313L290.009 414.773C290.008 412.94 290.009 403.909 290.009 401.327V384.519V368.323C307.895 368.979 322.871 368.327 340.146 361.966C366.527 352.321 388.524 333.471 402.079 308.896C405.279 303.214 407.085 298.372 409.79 292.527Z" fill="#6CB295"/>
<path d="M361.844 268.254L408.714 268.248C407.255 279.987 402.965 290.849 397.6 301.317C384.208 327.58 360.982 347.505 332.963 356.759C320.27 361.606 304.537 362.035 291.153 361.358L288.385 360.966V340.491V319.711L291.148 320.044C325.652 321.475 353.831 302.315 361.844 268.254Z" fill="#54A64E"/>
<path d="M199.914 267.7V264.455H219.438H239.537L239.602 267.661C243.217 294.574 260.306 311.703 286.243 318.422C286.488 331.564 286.494 346.848 286.26 360.005C237.817 353.215 201.572 317.465 199.914 267.7Z" fill="#6CB295"/>
<path d="M275.807 186.509L276.751 186.46C276.879 186.59 277.007 186.721 277.135 186.851C277.251 193.548 277.192 214.201 277.203 219.853C256.159 224.362 242.362 240.889 239.753 261.969L201.452 262.008L200.667 261.967C199.448 260.904 200.763 254.856 201.079 253.054C203.565 238.728 209.934 225.358 219.494 214.394C233.516 198.114 254.447 188.091 275.807 186.509Z" fill="#54A64E"/>
</svg>
