<svg width="627" height="694" viewBox="0 0 627 694" fill="none" xmlns="http://www.w3.org/2000/svg">
<path d="M231.683 414.606V333.621H267.416V469.438H233.109V446.047H231.767C228.859 453.592 224.022 459.657 217.255 464.24C210.545 468.823 202.352 471.115 192.678 471.115C184.066 471.115 176.489 469.159 169.946 465.246C163.404 461.334 158.287 455.772 154.596 448.562C150.961 441.351 149.116 432.716 149.06 422.655V333.621H184.793V416.283C184.849 423.884 186.89 429.893 190.917 434.309C194.943 438.724 200.339 440.932 207.106 440.932C211.412 440.932 215.438 439.954 219.185 437.998C222.931 435.986 225.951 433.023 228.244 429.111C230.592 425.198 231.739 420.363 231.683 414.606Z" fill="black"/>
<path d="M0 296.841V260.403H171.759V296.841H107.732V469.438H64.0268V296.841H0Z" fill="black"/>
<path d="M376.484 333.621V361.617H295.521V333.621H376.484ZM313.902 301.426H351.189V426.707C351.189 430.149 351.714 432.831 352.764 434.756C353.815 436.623 355.274 437.935 357.141 438.693C359.066 439.451 361.284 439.83 363.793 439.83C365.543 439.83 367.294 439.685 369.045 439.393C370.795 439.043 372.137 438.781 373.071 438.606L378.935 466.339C377.068 466.922 374.442 467.593 371.058 468.351C367.673 469.168 363.56 469.663 358.716 469.838C349.73 470.188 341.853 468.993 335.084 466.251C328.373 463.51 323.151 459.253 319.416 453.478C315.682 447.704 313.844 440.414 313.902 431.607V301.426Z" fill="black"/>
<path d="M418.985 267.477V286.374C418.985 291.74 417.935 297.222 415.834 302.821C413.792 308.362 411.049 313.611 407.607 318.569C404.164 323.468 400.4 327.638 396.315 331.08L379.86 321.368C382.778 316.761 385.345 311.657 387.563 306.058C389.838 300.459 390.976 293.956 390.976 286.549V267.477H418.985Z" fill="black"/>
<path d="M475.197 345.174C466.957 345.957 460.543 349.435 455.957 355.609C451.371 361.782 449.056 370.176 449.013 380.791C448.983 388.004 449.98 394.098 452.002 399.074C453.956 404.049 456.697 407.871 460.226 410.539C463.756 413.139 467.767 414.448 472.26 414.466C476.004 414.618 479.275 413.849 482.073 412.159C484.871 410.401 487.298 407.995 489.353 404.941C491.339 401.887 493.09 398.356 494.604 394.348C496.05 390.339 497.292 386.057 498.332 381.502L502.902 362.74C504.981 353.63 507.738 345.272 511.173 337.665C514.608 330.058 518.821 323.474 523.814 317.915C528.806 312.355 534.678 308.058 541.43 305.024C548.183 301.921 555.916 300.353 564.63 300.321C577.428 300.441 588.511 303.752 597.88 310.254C607.18 316.689 614.393 325.972 619.517 338.105C624.574 350.17 627.068 364.708 626.999 381.719C626.93 398.594 624.283 413.281 619.058 425.781C613.834 438.212 606.136 447.911 595.964 454.878C585.724 461.777 573.081 465.366 558.035 465.645L558.208 422.879C565.222 422.432 571.085 420.448 575.797 416.929C580.441 413.341 583.966 408.558 586.373 402.58C588.713 396.533 589.898 389.7 589.929 382.079C589.959 374.594 588.896 368.091 586.74 362.571C584.585 356.982 581.573 352.649 577.705 349.571C573.837 346.493 569.384 344.944 564.346 344.924C559.649 344.905 555.695 346.283 552.484 349.06C549.273 351.769 546.534 355.773 544.266 361.071C541.998 366.301 539.93 372.723 538.06 380.337L532.249 403.074C527.889 420.681 521.127 434.569 511.963 444.738C502.799 454.908 490.49 459.927 475.037 459.796C462.375 459.813 451.326 456.4 441.891 449.557C432.456 442.646 425.108 433.192 419.847 421.194C414.586 409.197 411.986 395.577 412.048 380.335C412.111 364.821 414.821 351.291 420.178 339.744C425.536 328.13 432.959 319.11 442.448 312.685C451.937 306.259 462.911 302.969 475.37 302.816L475.197 345.174Z" fill="black"/>
<path d="M312.26 53.3694V236.705L593.041 235.575C529.47 101.513 395.139 53.3695 312.26 53.3694Z" fill="#6CB295"/>
<path d="M167.461 93.549C167.461 123.143 143.357 148.159 113.749 148.159C84.1417 148.159 62.1941 126.705 60.1401 96.8339C60.9701 86.5389 64.4295 76.5764 69.9422 68.0915C30.1313 87.6952 8.27677 126.025 0.676994 148.159V162.877L215.216 162.402L268.004 23.682C276.152 11.0901 269.606 -9.84137 207.822 5.2689C188.378 11.8763 145.401 29.1756 129.052 45.5135C149.778 51.7693 165.882 70.3738 167.461 93.549Z" fill="#54A64E"/>
<path d="M256.502 267.055C222.488 262.62 215.559 287.859 216.346 297.132L279.992 297.132C279.992 297.132 276.739 287.111 286.458 276.391C294.922 267.055 306.619 267.268 306.619 267.268L306.619 219.951L252.599 171.807L256.502 167.971L306.517 212.521V53.1421C306.517 53.1421 293.285 52.8261 283.512 53.553C273.858 54.271 260.61 55.4008 260.61 55.4008L192.315 236.991H256.502L256.502 267.055Z" fill="#009957"/>
<path d="M212.854 167.971L185.947 236.439H112.517C100.912 235.378 73.3268 230.876 55.8268 221.349C40.9353 214.267 12.7956 193.264 0.47168 167.971H212.854Z" fill="#A7C68E"/>
<path d="M129.77 94.5758C129.77 103.533 122.506 110.795 113.544 110.795C104.582 110.795 97.3173 103.533 97.3173 94.5758C97.3173 85.6183 104.582 78.3569 113.544 78.3569C122.506 78.3569 129.77 85.6183 129.77 94.5758Z" fill="black"/>
<path fill-rule="evenodd" clip-rule="evenodd" d="M167.461 93.549C167.461 123.143 143.357 148.159 113.749 148.159C84.1417 148.159 62.1941 126.705 60.1401 96.8339C60.9701 86.5389 64.4295 76.5764 69.9422 68.0915C79.4356 53.4798 95.0185 43.2499 113.749 43.2499C119.02 43.2499 124.164 44.0384 129.052 45.5135C149.778 51.7693 165.882 70.3738 167.461 93.549ZM113.749 138.1C137.004 138.1 155.856 119.257 155.856 96.0129C155.856 72.7688 137.004 55.3629 113.749 55.3629C90.4942 55.3629 71.6424 72.7688 71.6424 96.0129C71.6424 119.257 90.4942 138.1 113.749 138.1Z" fill="#54A64E"/>
<path d="M129.775 94.5759C129.775 103.533 122.51 110.795 113.548 110.795C104.586 110.795 97.3215 103.533 97.3215 94.5759C97.3215 85.6184 104.586 78.3569 113.548 78.3569C122.51 78.3569 129.775 85.6184 129.775 94.5759Z" fill="black"/>
<path fill-rule="evenodd" clip-rule="evenodd" d="M155.86 96.013C155.86 119.257 137.008 138.1 113.753 138.1C90.4985 138.1 71.6466 119.257 71.6466 96.013C71.6466 72.7689 90.4985 55.363 113.753 55.363C137.008 55.363 155.86 72.7689 155.86 96.013ZM113.548 110.795C122.51 110.795 129.775 103.533 129.775 94.5759C129.775 85.6184 122.51 78.3569 113.548 78.3569C104.586 78.3569 97.3215 85.6184 97.3215 94.5759C97.3215 103.533 104.586 110.795 113.548 110.795Z" fill="white"/>
<ellipse cx="125.754" cy="91.731" rx="4.87951" ry="4.87721" fill="#EEFFF8"/>
<path d="M404.873 557.608H446.436C446.434 528.334 437.205 507.823 429.151 494.344H373.396C399.514 510.569 406.407 542.022 404.873 557.608Z" fill="#6CB295"/>
<path d="M301.278 557.224C302.348 547.772 304.806 528.371 330.964 525.837V494.344C303.8 494.344 269.692 507.538 263.015 557.224H301.278Z" fill="#54A64E"/>
<path d="M338.203 602.046V641.258C311.496 641.258 264.3 621.756 262.76 561.725H300.766C303.847 591.766 324.721 600.513 338.203 602.046Z" fill="#6CB295"/>
<path d="M404.142 562.201H446.524C444.021 587.239 407.816 645.016 342.833 641.096L342.833 601.802C357.804 603.706 399.129 591.764 404.142 562.201Z" fill="#54A64E"/>
<path d="M345.196 693.929V652.545C344.861 652.527 344.528 652.508 344.195 652.487C291.224 650.233 247.606 612.056 237.335 561.824L209.613 561.987C209.305 613.18 237.733 646.031 250.951 656.76C282.288 686.776 326.45 694.269 345.196 693.929Z" fill="#A7C68E"/>
<path d="M283.821 628.916C257.885 607.713 252.492 575.739 253.006 561.732L237.335 561.824C247.606 612.056 291.224 650.233 344.195 652.487C312.479 650.502 290.471 635.952 283.821 628.916Z" fill="#A7C68E"/>
<path d="M349.417 694C399.427 692.774 438.938 679.896 451.257 673.125V589.83C441.766 608.686 427.152 624.547 409.231 635.607C405.097 638.305 400.682 640.599 396.167 642.543C381.906 648.965 366.081 652.555 349.417 652.592L349.417 694Z" fill="#6CB295"/>
<path d="M456.962 670.838C470.543 664.83 511.137 643.542 548.939 603.425C569.522 581.583 607.747 530.164 615.573 494.344H534.387H453.2C459.046 507.995 463.269 523.302 463.269 539.078C463.269 552.148 461.049 564.702 456.962 576.387V670.838Z" fill="#009957"/>
<path d="M252.695 557.231C252.695 542.329 263.652 511.86 292.557 495.183C292.968 494.913 293.427 494.633 293.93 494.344L233.372 494.344C224.144 506.39 212.288 527.559 209.516 557.231H236.495H252.695Z" fill="#009957"/>
</svg>
