<svg width="18" height="9" viewBox="0 0 18 9" fill="none" xmlns="http://www.w3.org/2000/svg">
<path d="M0.00177559 8.11365V1.56819H1.73189V2.72302H1.80859C1.94496 2.3395 2.17223 2.03694 2.49041 1.81535C2.80859 1.59376 3.18928 1.48297 3.63246 1.48297C4.08132 1.48297 4.46342 1.59518 4.77876 1.81961C5.09411 2.0412 5.30433 2.34234 5.40945 2.72302H5.47763C5.61115 2.34802 5.85263 2.04831 6.20206 1.82387C6.55433 1.5966 6.97053 1.48297 7.45064 1.48297C8.06144 1.48297 8.55717 1.67757 8.93786 2.06677C9.32138 2.45314 9.51314 3.00143 9.51314 3.71166V8.11365H7.70206V4.06961C7.70206 3.70598 7.60547 3.43325 7.41229 3.25143C7.21911 3.06961 6.97763 2.9787 6.68786 2.9787C6.35831 2.9787 6.10121 3.08382 5.91655 3.29405C5.73189 3.50143 5.63956 3.77558 5.63956 4.11649V8.11365H3.87962V4.03126C3.87962 3.71024 3.78729 3.45456 3.60263 3.26422C3.42081 3.07387 3.18075 2.9787 2.88246 2.9787C2.68075 2.9787 2.49893 3.02984 2.337 3.13211C2.17791 3.23155 2.05149 3.37217 1.95774 3.55399C1.86399 3.73297 1.81712 3.94319 1.81712 4.18467V8.11365H0.00177559ZM14.4286 1.56819V2.93183H10.4869V1.56819H14.4286ZM11.3817 1.09673e-05H13.1971V6.10228C13.1971 6.2699 13.2227 6.40058 13.2738 6.49433C13.3249 6.58524 13.396 6.64916 13.4869 6.68609C13.5806 6.72302 13.6886 6.74149 13.8107 6.74149C13.896 6.74149 13.9812 6.73439 14.0664 6.72018C14.1516 6.70314 14.217 6.69035 14.2624 6.68183L14.5479 8.03268C14.457 8.06109 14.3292 8.09376 14.1644 8.13069C13.9996 8.17047 13.7994 8.19461 13.5636 8.20314C13.1261 8.22018 12.7425 8.16194 12.413 8.02842C12.0863 7.8949 11.832 7.68751 11.6502 7.40626C11.4684 7.12501 11.3789 6.7699 11.3817 6.34092V1.09673e-05ZM16.6722 8.22444C16.391 8.22444 16.1495 8.12501 15.9478 7.92615C15.7489 7.72444 15.6495 7.48297 15.6495 7.20172C15.6495 6.92331 15.7489 6.68467 15.9478 6.48581C16.1495 6.28694 16.391 6.18751 16.6722 6.18751C16.945 6.18751 17.1836 6.28694 17.3881 6.48581C17.5927 6.68467 17.695 6.92331 17.695 7.20172C17.695 7.38922 17.6467 7.56109 17.5501 7.71734C17.4563 7.87075 17.3327 7.99433 17.1793 8.08808C17.0259 8.17899 16.8569 8.22444 16.6722 8.22444Z" fill="black"/>
</svg>
